<?xml version="1.0" encoding="UTF-8"?>
<svg width="12px" height="10px" viewBox="0 0 12 10" version="1.1" xmlns="http://www.w3.org/2000/svg" xmlns:xlink="http://www.w3.org/1999/xlink">
    <!-- Generator: Sketch 49.3 (51167) - http://www.bohemiancoding.com/sketch -->
    <title></title>
    <desc>Created with Sketch.</desc>
    <defs></defs>
    <g id="Symbols" stroke="none" stroke-width="1" fill="none" fill-rule="evenodd" opacity="0.600000024">
        <g id="Component-/-Footer" transform="translate(-1142.000000, -68.000000)" fill="#FFFFFF">
            <g id="Twitter" transform="translate(1130.000000, 55.000000)">
                <path d="M22.4726562,15.3710938 L22.4726562,15.671875 C22.4726562,16.4921916 22.3222671,17.2988242 22.0214844,18.0917969 C21.7207016,18.8847696 21.2923205,19.6093717 20.7363281,20.265625 C20.1803358,20.9218783 19.4602909,21.4550761 18.5761719,21.8652344 C17.6920529,22.2753927 16.7213595,22.4804688 15.6640625,22.4804688 C14.3333267,22.4804688 13.1119847,22.1250036 12,21.4140625 C12.1822926,21.4322918 12.3736969,21.4414062 12.5742188,21.4414062 C13.6862035,21.4414062 14.6796831,21.10417 15.5546875,20.4296875 C15.026039,20.4114582 14.5566427,20.2473974 14.1464844,19.9375 C13.7363261,19.6276026 13.4583341,19.2356795 13.3125,18.7617188 C13.4583341,18.7981773 13.6041659,18.8164062 13.75,18.8164062 C13.9687511,18.8164062 14.1783844,18.7799483 14.3789062,18.7070312 C13.8320285,18.5976557 13.3763039,18.3242209 13.0117188,17.8867188 C12.6471336,17.4492166 12.4648438,16.9479195 12.4648438,16.3828125 L12.4648438,16.3554688 C12.8111996,16.5377613 13.1757793,16.6380207 13.5585938,16.65625 C12.8476527,16.16406 12.4921875,15.4987021 12.4921875,14.6601562 C12.4921875,14.2226541 12.6015614,13.8216164 12.8203125,13.4570312 C13.421878,14.1862016 14.1464801,14.7695291 14.9941406,15.2070312 C15.8418011,15.6445334 16.7578076,15.8906247 17.7421875,15.9453125 C17.705729,15.7630199 17.6875,15.5807301 17.6875,15.3984375 C17.6875,14.7421842 17.9199196,14.1816429 18.3847656,13.7167969 C18.8496117,13.2519508 19.410153,13.0195312 20.0664062,13.0195312 C20.759118,13.0195312 21.3424455,13.2656225 21.8164062,13.7578125 C22.363284,13.648437 22.8736955,13.4570326 23.3476562,13.1835938 C23.1653637,13.7487007 22.8098985,14.1861964 22.28125,14.4960938 C22.77344,14.441406 23.2382791,14.3229176 23.6757812,14.140625 C23.3476546,14.6145857 22.946617,15.0247379 22.4726562,15.3710938 Z" id=""></path>
            </g>
        </g>
    </g>
</svg>