<?xml version="1.0" encoding="UTF-8"?>
<svg width="16px" height="13px" viewBox="0 0 16 13" version="1.1" xmlns="http://www.w3.org/2000/svg" xmlns:xlink="http://www.w3.org/1999/xlink">
    <!-- Generator: Sketch 49.3 (51167) - http://www.bohemiancoding.com/sketch -->
    <title>Label Copy</title>
    <desc>Created with Sketch.</desc>
    <defs></defs>
    <g id="Desktop" stroke="none" stroke-width="1" fill="none" fill-rule="evenodd">
        <g id="4b.-Directory---Entry" transform="translate(-300.000000, -241.000000)" fill="#8D9199">
            <path d="M313.958984,244.191406 L313.958984,244.578125 C313.958984,245.632818 313.765627,246.669917 313.378906,247.689453 C312.992186,248.708989 312.44141,249.640621 311.726562,250.484375 C311.011715,251.328129 310.085943,252.013669 308.949219,252.541016 C307.812494,253.068362 306.56446,253.332031 305.205078,253.332031 C303.494132,253.332031 301.923835,252.875005 300.494141,251.960938 C300.728517,251.984375 300.974608,251.996094 301.232422,251.996094 C302.662117,251.996094 303.939448,251.562504 305.064453,250.695312 C304.384762,250.671875 303.781253,250.460939 303.253906,250.0625 C302.72656,249.664061 302.369142,249.160159 302.181641,248.550781 C302.369142,248.597656 302.55664,248.621094 302.744141,248.621094 C303.025392,248.621094 303.294921,248.574219 303.552734,248.480469 C302.849606,248.339843 302.263674,247.988284 301.794922,247.425781 C301.32617,246.863278 301.091797,246.218754 301.091797,245.492188 L301.091797,245.457031 C301.537112,245.691407 302.005857,245.820312 302.498047,245.84375 C301.58398,245.210934 301.126953,244.355474 301.126953,243.277344 C301.126953,242.714841 301.267577,242.199221 301.548828,241.730469 C302.322269,242.667973 303.253901,243.417966 304.34375,243.980469 C305.433599,244.542972 306.611322,244.859375 307.876953,244.929688 C307.830078,244.695311 307.806641,244.460939 307.806641,244.226562 C307.806641,243.382808 308.105466,242.662112 308.703125,242.064453 C309.300784,241.466794 310.02148,241.167969 310.865234,241.167969 C311.755864,241.167969 312.505856,241.484372 313.115234,242.117188 C313.818363,241.976562 314.474606,241.730471 315.083984,241.378906 C314.849608,242.105472 314.392582,242.667967 313.712891,243.066406 C314.345706,242.996093 314.943357,242.843751 315.505859,242.609375 C315.083982,243.218753 314.568362,243.746092 313.958984,244.191406 Z" id="Label-Copy"></path>
        </g>
    </g>
</svg>