<?xml version="1.0" encoding="utf-8"?>
<!-- Generator: Adobe Illustrator 23.0.6, SVG Export Plug-In . SVG Version: 6.00 Build 0)  -->
<svg version="1.1" id="Layer_1" xmlns="http://www.w3.org/2000/svg" xmlns:xlink="http://www.w3.org/1999/xlink" x="0px" y="0px"
	 viewBox="0 0 180 27.9" style="enable-background:new 0 0 180 27.9;" xml:space="preserve">
<style type="text/css">
	.st0{fill:#FFFFFF;}
	.st1{fill:#221F1F;}
</style>
<title>CF_logo</title>
<desc>Created with Sketch.</desc>
<g>
	<g id="Desktop_2_">
		<g transform="translate(-130.000000, -40.000000)">
			<g id="Hero_2_" transform="translate(0.000000, -2.000000)">
				<g transform="translate(130.000000, 34.000000)">
					<g id="CF_logo_2_" transform="translate(0.000000, 8.000000)">
						<g id="Group_2_">
							<g id="Shape_2_">
								<g transform="translate(0.000000, 2.000000)">
									<path d="M10.5,0.4c0.4,0,1.2,0,2.2,0.2c0.7,0.2,1.2,0.8,0.9,1.4c-0.2,0.4-0.6,0.6-1.2,0.6c-0.3,0-0.6-0.1-0.8-0.2
										c-0.4-0.2-1-0.4-1.8-0.4c-4.4,0-6.1,4.6-6.1,8.3c0,2.8,1.2,4.8,4.1,4.8c0.7,0,1.2-0.1,2-0.4c0.1,0,0.3-0.1,0.4-0.2
										c0.6-0.2,1.4,0,1.2,0.5c-0.3,0.7-1,1.4-2.1,1.5c-0.6,0.1-1.3,0.1-2.1,0.1c-2.5,0-4.7-0.6-5.9-2.4c-0.6-1-1-2.3-1-3.8
										C0.3,6.5,2.4,0.4,10.5,0.4z"/>
									<path d="M23.1,5.2c1.2,1.2,1.2,2.4,1.2,3.1c0,3.5-2.2,8.5-7.3,8.5c-1.3,0-2.6-0.4-3.4-1.1c-0.5-0.5-1.4-1.5-1.4-3.4
										c0-3.6,2.4-8.1,7.4-8.1C21.2,4,22.4,4.4,23.1,5.2z M20.6,6.1c-0.3-0.2-0.7-0.6-1.4-0.6c-3.2,0-4,5.1-4,6.9
										c0,2.1,0.9,2.8,1.9,2.8c3.5,0,4-6,4-7.1C21.2,7.6,21.2,6.6,20.6,6.1z"/>
									<path d="M39.1,4c0.8,0,2.8,0.3,2.8,2.3c0,0.5-0.1,1-0.2,1.8c-0.1,0.6-0.2,1.3-0.3,1.9c-0.1,0.6-0.2,1.3-0.4,1.9
										c-0.3,1.6-0.4,2.6-0.4,3.2c0,0.7-0.8,1.2-1.7,1.2h-0.2c-0.8,0-1.4-0.6-1.2-1.1c0.1-0.4,0.3-1.2,0.4-1.9
										c0.1-0.6,0.2-1.3,0.4-2c0.1-0.7,0.2-1.3,0.3-1.9c0.1-0.8,0.3-1.6,0.3-2.1c0-1.1-0.2-1.4-0.5-1.4c-0.9,0-2.2,0.8-3,3
										c-0.6,1.8-1,5-1.1,6.3c-0.1,0.7-0.9,1.2-1.7,1.2c-0.8,0-1.5-0.6-1.4-1.1c0.2-0.7,0.4-1.7,0.7-3.3c0.1-0.5,0.2-1.1,0.3-1.5
										c0.2-1.4,0.4-2.5,0.4-3.1c0-1,0-1.4-0.6-1.4c-1,0-2.1,1.1-2.8,2.9c-0.5,1.5-1,5-1.2,6.4c0,0.7-0.8,1.2-1.7,1.2h-0.2
										c-0.8,0-1.3-0.6-1.2-1.1c0.1-0.5,0.2-0.9,0.4-1.7c0-0.1,0.1-0.3,0.1-0.3l0,0c0.1-0.6,0.2-1.2,0.3-1.9
										c0.2-1.2,0.4-2.5,0.6-3.7c0.2-0.9,0.2-1.5,0.2-2c0-0.6,0.2-1.1,1-1.3c0.1,0,0.2,0,0.2,0c0.1,0,0.1,0,0.1,0
										c0.1,0,0.2,0,0.3,0c0.7-0.1,1.6,0.3,1.5,0.9c0,0.1,0,0.2-0.1,0.3C29.6,5.4,29.8,5.2,30,5c0.2-0.2,1.2-1,2.5-1
										c1.8,0,2.5,1.4,2.7,2.5C35.6,6,36,5.4,36.5,5C36.7,4.7,37.7,4,39.1,4z"/>
									<path d="M56.9,4c0.8,0,2.8,0.3,2.8,2.3c0,0.5-0.1,1-0.2,1.8c-0.1,0.6-0.2,1.3-0.3,1.9c-0.1,0.6-0.2,1.3-0.4,1.9
										c-0.3,1.6-0.4,2.6-0.4,3.2c0,0.7-0.8,1.2-1.7,1.2h-0.2c-0.8,0-1.4-0.6-1.2-1.1c0.1-0.4,0.3-1.2,0.4-1.9
										c0.1-0.6,0.2-1.3,0.4-2c0.1-0.7,0.2-1.3,0.3-1.9c0.1-0.8,0.3-1.6,0.3-2.1c0-1.1-0.2-1.4-0.5-1.4c-0.9,0-2.2,0.8-3,3
										c-0.6,1.8-1,5-1.1,6.3c-0.1,0.7-0.9,1.2-1.7,1.2c-0.8,0-1.5-0.6-1.4-1.1c0.2-0.7,0.4-1.7,0.7-3.3c0.1-0.5,0.2-1.1,0.3-1.5
										C50,9,50.2,7.8,50.2,7.3c0-1,0-1.4-0.6-1.4c-1,0-2.1,1.1-2.8,2.9c-0.5,1.5-1,5-1.2,6.4c0,0.7-0.8,1.2-1.7,1.2h-0.2
										c-0.8,0-1.3-0.6-1.2-1.1c0.1-0.5,0.2-0.9,0.4-1.7c0-0.1,0.1-0.3,0.1-0.3l0,0c0.1-0.6,0.2-1.2,0.3-1.9
										c0.2-1.2,0.4-2.5,0.6-3.7c0.2-0.9,0.2-1.5,0.2-2c0-0.6,0.2-1.1,1-1.3c0.1,0,0.2,0,0.2,0c0.1,0,0.1,0,0.1,0
										c0.1,0,0.2,0,0.3,0c0.7-0.1,1.6,0.3,1.5,0.9c0,0.1,0,0.2-0.1,0.3c0.2-0.2,0.4-0.4,0.6-0.6c0.2-0.2,1.2-1,2.5-1
										c1.8,0,2.5,1.4,2.7,2.5C53.5,6,53.9,5.4,54.3,5C54.6,4.7,55.5,4,56.9,4z"/>
									<path d="M64.1,11c-0.4,2.2-0.6,3.5-0.6,4.3c0,0.6-0.8,1.1-1.7,1.1h-0.2c-0.7,0-1.3-0.6-1.2-1.2c0,0,0-0.1,0-0.1
										c0.1-0.5,0.3-1.1,0.4-2l0.4-2.2c0.5-2.9,0.7-4.4,0.7-5.2c0-0.5,0.2-1.2,1.1-1.2c0.3,0,0.5-0.1,0.8-0.1
										c0.8-0.2,1.4,0.4,1.4,1c0,0.1,0,0.2,0,0.4c-0.1,0.4-0.2,0.9-0.3,1.7L64.1,11z M65.9,1.2c0,0.7-0.7,1.9-2,1.9
										c-0.8,0-1.5-0.4-1.5-1.2c0-0.7,0.6-1.8,2-1.8C65.1,0.1,65.9,0.4,65.9,1.2z"/>
									<path d="M67.8,10.8c-0.7-0.4-2-1.2-2-2.6c0-1.2,0.8-2.3,1.9-3.2c1.1-0.8,2.9-1,3.8-1c0.7,0,1.1,0,1.5,0.2h0
										c0.7,0.2,1.1,0.8,0.9,1.3C73.7,5.8,73.3,6,72.8,6c-0.3,0-0.6,0-0.8-0.2h0c-0.3-0.2-0.7-0.3-1.1-0.3c-1.4,0-2.2,1.1-2.2,1.9
										c0,1,0.7,1.4,1.4,1.9l1.1,0.7c0.7,0.4,1.8,1.1,1.8,2.4c0,1-0.5,2.2-1.9,3.3c-1.3,1-3,1-4,1c-0.6,0-1.2-0.1-1.6-0.2
										c-0.8-0.2-1.3-0.8-1.2-1.3c0.3-0.7,1.2-1,1.9-0.7h0c0.4,0.2,0.9,0.4,1.7,0.4c1.5,0,2.2-0.9,2.2-1.8c0-0.9-0.5-1.2-1.1-1.6
										L67.8,10.8z"/>
									<path d="M76.1,10.8c-0.7-0.4-2-1.2-2-2.6C74.1,7,74.9,5.9,76,5c1.1-0.8,2.9-1,3.8-1c0.7,0,1.1,0,1.5,0.2h0
										c0.7,0.2,1.1,0.8,0.9,1.3C82.1,5.8,81.6,6,81.1,6c-0.3,0-0.6,0-0.8-0.2h0c-0.3-0.2-0.7-0.3-1.1-0.3c-1.4,0-2.2,1.1-2.2,1.9
										c0,1,0.7,1.4,1.4,1.9l1.1,0.7c0.7,0.4,1.8,1.1,1.8,2.4c0,1-0.5,2.2-1.9,3.3c-1.3,1-3,1-4,1c-0.6,0-1.2-0.1-1.6-0.2
										c-0.8-0.2-1.3-0.8-1.2-1.3c0.3-0.7,1.2-1,1.9-0.7h0c0.4,0.2,0.9,0.4,1.7,0.4c1.5,0,2.2-0.9,2.2-1.8c0-0.9-0.5-1.2-1.1-1.6
										L76.1,10.8z"/>
									<path d="M85.9,11c-0.4,2.2-0.6,3.5-0.6,4.3c0,0.6-0.8,1.1-1.7,1.1h-0.2c-0.7,0-1.3-0.6-1.2-1.2c0,0,0-0.1,0-0.1
										c0.1-0.5,0.3-1.1,0.4-2l0.4-2.2c0.5-2.9,0.7-4.4,0.7-5.2c0-0.5,0.2-1.2,1.1-1.2c0.3,0,0.5-0.1,0.8-0.1
										c0.8-0.2,1.4,0.4,1.4,1c0,0.1,0,0.2,0,0.4c-0.1,0.4-0.2,0.9-0.3,1.7L85.9,11z M87.6,1.2c0,0.7-0.7,1.9-2,1.9
										c-0.8,0-1.5-0.4-1.5-1.2c0-0.7,0.6-1.8,2-1.8C86.9,0.1,87.6,0.4,87.6,1.2z"/>
									<path d="M98.2,5.2c1.2,1.2,1.2,2.4,1.2,3.1c0,3.5-2.2,8.5-7.3,8.5c-1.3,0-2.6-0.4-3.4-1.1c-0.5-0.5-1.4-1.5-1.4-3.4
										c0-3.6,2.4-8.1,7.4-8.1C96.2,4,97.5,4.4,98.2,5.2z M95.7,6.1c-0.3-0.2-0.7-0.6-1.4-0.6c-3.2,0-4,5.1-4,6.9
										c0,2.1,0.9,2.8,1.9,2.8c3.5,0,4-6,4-7.1C96.3,7.6,96.2,6.6,95.7,6.1z"/>
									<path d="M101,8.5c0.2-0.9,0.3-2,0.3-2.9V5.5c0-0.5,0.3-1.1,1.1-1.2c0.2,0,0.4,0,0.6-0.1c0,0,0.1,0,0.1,0
										c0.7-0.1,1.5,0.4,1.4,0.9c0,0.3,0.1-0.2,0,0.4c0.1-0.1,0.3-0.3,0.4-0.4c0.9-0.7,2.1-1.1,3.4-1.1c1.4,0,3.3,0.5,3.3,2.4
										c0,0.4-0.1,0.9-0.2,1.9c-0.1,0.5-0.2,1-0.3,1.6c-0.1,0.5-0.2,1-0.3,1.5c-0.2,1-0.5,2.8-0.6,3.9c0,0.7-0.8,1.2-1.7,1.2h-0.2
										c-0.7,0-1.4-0.5-1.2-1c0.2-0.7,0.5-1.8,0.8-3.9l0.3-1.5c0.2-1.1,0.3-2,0.3-2.6c0-1.1-0.3-1.5-1.3-1.5
										c-0.8,0-1.9,0.7-2.5,1.5c-0.7,0.9-1,2.5-1.2,3.7l-0.4,2.6c-0.1,0.7-0.2,1.2-0.2,1.6c0,0.6-0.8,1.1-1.7,1.1h-0.2
										c-0.8,0-1.4-0.5-1.3-1c0.2-0.8,0.4-1.6,0.5-2.6L101,8.5z"/>
								</g>
								<g transform="translate(108.000000, 0.000000)">
									<path d="M5.4,6.6C5.4,6.2,5.9,6,6.5,6c0.4-2.4,1.1-3.5,2.3-4.5c1-0.7,2.2-0.9,3.2-1c0.7,0,1.2,0.5,1,1
										c-0.2,0.5-1,0.7-1.7,0.7C10.2,2.3,9.7,4,9.3,6H10c0.1,0,0.2,0,0.2,0h0.6c0.6,0,1.2,0.4,1.1,0.8c-0.1,0.4-0.7,0.7-1.4,0.7
										c-0.3,0-1,0-1.2,0H9.1C8.9,8.6,8.7,9.7,8.5,11c-0.2,1.2-0.4,2.4-0.6,3.6c0,0.2,0,0.4-0.1,0.5c0,0.2-0.1,0.4-0.1,0.6
										c-0.1,0.3-0.1,0.7-0.2,1.1c-0.4,2.1-1.6,6.7-6.1,6.9c-0.7,0-1.1-0.6-1-1c0.2-0.5,0.9-0.7,1.5-0.7c0.6-0.1,1.1-0.6,1.3-0.9
										c0.7-0.8,1.1-3.1,1.6-5.8c0.2-1.2,0.4-2.6,0.6-3.9c0.2-1.3,0.4-2.6,0.6-3.8C5.6,7.3,5.3,7,5.4,6.6z"/>
									<path d="M20.7,6.4c0.8-0.2,1.5,0.4,1.4,1c-0.2,0.7-0.4,1.9-0.8,3.9l-0.4,2.2c-0.3,1.8-0.5,3.4-0.5,4c0,0.6-0.7,1-1.5,1
										c-0.8,0-1.4-0.4-1.4-1c0-0.4,0.1-0.9,0.2-1.4c-0.9,1.2-2.1,2.6-3.8,2.6c-1.8,0-3.7-1.2-3.7-3.7c0-1,0.6-5.1,3.9-7.7
										C14.6,6.9,15.9,6,17.9,6c1,0,1.7,0.2,2.4,0.5L20.7,6.4z M19,7.8c-0.4-0.1-0.9-0.3-1.4-0.3c-3.4,0-4.3,4.8-4.3,6.6
										c0,1.5,0.4,2.6,1.5,2.6c0.6,0,1.5-0.4,2.2-1.5c0.6-0.8,1-2.1,1.4-4.3L19,7.8z"/>
									<path d="M31.9,6.2c0.7,0.2,0.9,0.8,0.7,1.2c-0.1,0.4-0.5,0.5-1,0.5c-0.3,0-0.5,0-0.7-0.1h0c-0.3-0.1-0.6-0.2-0.9-0.2
										c-2.7,0-4.3,3-4.3,6c0,1.1,0.2,2.4,1.2,3.1c0.6,0.4,1.1,0.5,1.7,0.5c0.5,0,0.9-0.1,1.3-0.2c0.6-0.2,1.1,0.3,1,0.7
										c-0.2,0.5-0.9,0.9-1.6,1c-0.3,0-0.8,0.1-1.2,0.1c-3.5,0-5.7-1.9-5.7-4.9c0-3.5,2.5-7.8,7.9-7.8C31,6,31.5,6.1,31.9,6.2z"/>
									<path d="M36.8,6c0.1,0,0.2,0,0.3,0c0.3,0,0.6,0,0.8,0c0.7-0.1,1.2,0.4,1.1,0.8c-0.1,0.5-0.8,0.8-1.5,0.8
										c-0.4,0-0.8,0-1.1,0c0,0.1,0,0.2-0.1,0.3c-0.1,0.5-0.2,1.2-0.4,1.9c-0.1,0.6-0.2,1.3-0.4,1.9c-0.1,0.5-0.2,1-0.3,1.3
										c-0.2,1.2-0.4,2.2-0.4,2.8c0,0.8,0.4,1.2,0.8,1.2c0.1,0,0.3,0,0.5-0.1c0.6-0.1,1.2,0.3,1.1,0.7c-0.1,0.6-0.7,1-1.5,1.2
										c-0.2,0-0.4,0-0.6,0c-1.5,0-2.5-0.4-2.8-0.9c-0.3-0.5-0.5-0.9-0.5-1.3c0-0.4,0.1-0.9,0.2-1.5l1.4-7.4
										c-0.4-0.1-0.8-0.4-0.7-0.8C32.9,6.3,33.3,6,33.9,6c0.1-0.6,0.2-1,0.2-1.5c0.1-0.7,0.7-1.3,1.7-1.6c0.8-0.2,1.6,0.3,1.4,0.8
										C37,4.5,36.9,5.1,36.8,6L36.8,6L36.8,6L36.8,6z"/>
									<path d="M49.7,10.2C49.9,9,50,8.2,50,7.7c0-0.6,0.3-1.1,1.1-1.2c0.2,0,0.4,0,0.6-0.1h0c0.8-0.2,1.6,0.3,1.5,0.8
										c0,0.1,0,0.3-0.1,0.4C53.1,7.8,53,7.9,53,8c0.4-0.5,0.8-0.9,1.3-1.3c0.4-0.2,0.8-0.4,1.3-0.6c0.8-0.2,1.5,0.4,1.3,1
										c-0.2,0.6-1,1-1.9,1.2h0c-0.8,0.2-2,1.2-2.6,3.4c-0.3,1.2-0.8,4.1-1,5.5c-0.1,0.7-0.8,1.2-1.7,1.2h-0.1
										c-0.8,0-1.5-0.5-1.3-1.1c0.1-0.4,0.2-0.8,0.3-1.1L49.7,10.2z"/>
									<path d="M59.5,18.5c-0.7-0.2-1.4-0.6-1.4-1.2c-0.2-2.6-0.4-3.7-0.9-6.6c-0.3-1.7-0.5-2.7-0.7-3.3v0
										c-0.2-0.6,0.5-1.1,1.2-1.1h0.5c0.9,0,1.6,0.6,1.7,1.3c0,0.5,0.1,1.2,0.2,2.1c0.3,2,0.5,3.7,0.8,5.8c0.2-0.3,0.3-0.7,0.4-1
										c1.5-3.6,2.3-5.7,2.7-6.9c0.2-0.8,1-1.3,2-1.2h0.2c0.7,0,1.2,0.6,0.9,1c-0.1,0.1-0.1,0.2-0.2,0.3c-0.5,1-1.1,2.3-1.5,3.2
										l-3.6,7.9c-1.2,2.4-2.7,4.8-6,5.3c-0.8,0-1.5-0.5-1.4-1c0.2-0.7,1-1.1,1.8-1.1c1.3-0.1,2.2-1.6,2.7-2.4L59.5,18.5z"/>
								</g>
								<path d="M156.4,13.2l-0.2-0.2v0c0,0,0,0,0-0.1l0,0v-0.8l0,0c0,0,0,0,0-0.1v0l0.4-0.3l0.4-0.4c0,0,0-0.1,0-0.1
									c-0.1-0.3-0.1-0.7-0.3-1c0,0,0,0-0.1-0.1l-0.7-0.2l-0.4-0.1l0,0c0,0,0,0-0.1,0l0,0l-0.4-0.7l0,0c0,0,0,0,0-0.1l0,0l0.1-0.2
									l0.3-0.8c0,0,0-0.1,0-0.1c-0.2-0.3-0.5-0.5-0.7-0.7c0,0-0.1,0-0.1,0l-1.1,0.3l0,0c0,0,0,0-0.1,0l0,0L153,7.5l0,0
									c0,0,0,0,0-0.1l0,0l-0.2-1c0,0,0-0.1-0.1-0.1c-0.3-0.1-0.7-0.2-1-0.3c0,0-0.1,0-0.1,0l-0.8,0.8h0c0,0,0,0-0.1,0l0,0h-0.8
									l0,0c0,0,0,0-0.1,0h0l-0.4-0.5l-0.3-0.3c0,0-0.1,0-0.1,0c-0.3,0.1-0.7,0.1-1,0.3c0,0,0,0-0.1,0.1L148,7.3L148,7.5l0,0
									c0,0,0,0,0,0.1l0,0l-0.7,0.4l0,0c0,0,0,0-0.1,0l0,0l-1-0.3c0,0-0.1,0-0.1,0c-0.3,0.2-0.5,0.5-0.7,0.7c0,0,0,0.1,0,0.1
									l0.2,0.8l0.1,0.3l0,0c0,0,0,0,0,0.1l0,0l-0.2,0.3l-0.2,0.4l0,0c0,0,0,0-0.1,0l0,0l-0.3,0.1l-0.8,0.2c0,0-0.1,0-0.1,0.1
									c-0.1,0.3-0.2,0.7-0.3,1c0,0,0,0.1,0,0.1l0.3,0.3l0.4,0.4v0c0,0,0,0,0,0.1l0,0V13l0,0c0,0,0,0,0,0.1v0l-0.3,0.3l-0.5,0.4
									c0,0,0,0,0,0.1c0.1,0.3,0.1,0.7,0.3,1c0,0,0,0,0.1,0.1l0.6,0.1l0.5,0.1l0,0c0,0,0,0,0.1,0l0,0l0.4,0.7l0,0c0,0,0,0,0,0.1
									l0,0l-0.3,1c0,0,0,0.1,0,0.1c0.2,0.3,0.5,0.5,0.7,0.7c0,0,0.1,0,0.1,0l0.3-0.1l0.7-0.2l0,0c0,0,0,0,0.1,0l0,0l0.6,0.3
									l0.1,0.1l0,0c0,0,0,0,0,0.1l0,0l0.1,0.7l0.1,0.4c0,0,0,0.1,0.1,0.1c0.3,0.1,0.7,0.2,1,0.3c0,0,0.1,0,0.1,0l0.6-0.6l0.2-0.2
									h0c0,0,0,0,0.1,0l0,0h0.8l0,0c0,0,0,0,0.1,0h0l0.1,0.1l0.6,0.7c0,0,0.1,0,0.1,0c0.3-0.1,0.7-0.1,1-0.3c0,0,0,0,0.1-0.1
									l0.2-0.6l0.1-0.4l0,0c0,0,0,0,0-0.1l0,0l0.2-0.1l0.5-0.3l0,0c0,0,0.1,0,0.1,0l0,0l1,0.3c0,0,0.1,0,0.1,0
									c0.3-0.2,0.5-0.5,0.7-0.7c0,0,0-0.1,0-0.1l-0.1-0.3l-0.2-0.7l0,0c0,0,0,0,0-0.1l0,0l0.1-0.2l0.3-0.5l0,0c0,0,0,0,0.1,0l0,0
									l0.9-0.2l0.2,0c0,0,0.1,0,0.1-0.1c0.1-0.3,0.2-0.7,0.3-1c0,0,0-0.1,0-0.1L156.4,13.2z M146.4,12.6c0-0.5,0.1-1.1,0.3-1.5
									c0.6-1.5,2.1-2.5,3.8-2.5c0.3,0,0.5,0,0.8,0.1c1.8,0.4,3.2,2,3.2,4c0,2.2-1.8,4.1-4.1,4.1C148.2,16.7,146.4,14.9,146.4,12.6
									z"/>
							</g>
							<g>
								<g transform="translate(0.000000, 2.000000)">
									<path class="st0" d="M10.2,0.1c0.4,0,1.2,0,2.2,0.2c0.7,0.2,1.2,0.8,0.9,1.4c-0.2,0.4-0.6,0.6-1.2,0.6
										c-0.3,0-0.6-0.1-0.8-0.2c-0.4-0.2-1-0.4-1.8-0.4c-4.4,0-6.1,4.6-6.1,8.3c0,2.8,1.2,4.8,4.1,4.8c0.7,0,1.2-0.1,2-0.4
										c0.1,0,0.3-0.1,0.4-0.2c0.6-0.2,1.4,0,1.2,0.5c-0.3,0.7-1,1.4-2.1,1.5c-0.6,0.1-1.3,0.1-2.1,0.1c-2.5,0-4.7-0.6-5.9-2.4
										c-0.6-1-1-2.3-1-3.8C0,6.1,2.1,0.1,10.2,0.1z"/>
									<path class="st0" d="M22.8,4.8C24,6,24,7.3,24,7.9c0,3.5-2.2,8.5-7.3,8.5c-1.3,0-2.6-0.4-3.4-1.1c-0.5-0.5-1.4-1.5-1.4-3.5
										c0-3.6,2.4-8.1,7.4-8.1C20.8,3.7,22.1,4.1,22.8,4.8z M20.3,5.8c-0.3-0.2-0.7-0.6-1.4-0.6c-3.2,0-4,5.1-4,6.9
										c0,2.1,0.9,2.8,1.9,2.8c3.5,0,4-6,4-7.1C20.9,7.3,20.9,6.3,20.3,5.8z"/>
									<path class="st0" d="M38.7,3.6c0.8,0,2.8,0.3,2.8,2.3c0,0.5-0.1,1-0.2,1.8c-0.1,0.6-0.2,1.3-0.3,1.9
										c-0.1,0.6-0.2,1.3-0.4,1.9c-0.3,1.6-0.4,2.6-0.4,3.2c0,0.7-0.8,1.2-1.7,1.2h-0.2c-0.8,0-1.4-0.6-1.2-1.1
										c0.1-0.4,0.3-1.2,0.4-1.9c0.1-0.6,0.2-1.3,0.4-2c0.1-0.7,0.2-1.3,0.3-1.9c0.1-0.8,0.3-1.6,0.3-2.1c0-1.1-0.2-1.4-0.5-1.4
										c-0.9,0-2.2,0.8-3,3c-0.6,1.8-1,5-1.1,6.3c-0.1,0.7-0.9,1.2-1.7,1.2c-0.8,0-1.5-0.6-1.4-1.1c0.2-0.7,0.4-1.7,0.7-3.3
										c0.1-0.5,0.2-1.1,0.3-1.5c0.2-1.4,0.4-2.5,0.4-3.1c0-1,0-1.4-0.6-1.4c-1,0-2.1,1.1-2.8,2.9c-0.5,1.5-1,5-1.2,6.4
										c0,0.7-0.8,1.2-1.7,1.2h-0.2c-0.8,0-1.3-0.6-1.2-1.1c0.1-0.5,0.2-0.9,0.4-1.7c0-0.1,0.1-0.3,0.1-0.3l0,0
										c0.1-0.6,0.2-1.2,0.3-1.9c0.2-1.2,0.4-2.5,0.6-3.7C26,6.5,26,5.9,26,5.4c0-0.6,0.2-1.1,1-1.3c0.1,0,0.2,0,0.2,0
										c0.1,0,0.1,0,0.1,0c0.1,0,0.2,0,0.3,0C28.4,4,29.3,4.4,29.2,5c0,0.1,0,0.2-0.1,0.3c0.2-0.2,0.4-0.4,0.6-0.6
										c0.2-0.2,1.2-1,2.5-1c1.8,0,2.5,1.4,2.7,2.5c0.3-0.5,0.8-1.1,1.2-1.5C36.4,4.4,37.4,3.6,38.7,3.6z"/>
									<path class="st0" d="M56.6,3.6c0.8,0,2.8,0.3,2.8,2.3c0,0.5-0.1,1-0.2,1.8c-0.1,0.6-0.2,1.3-0.3,1.9
										c-0.1,0.6-0.2,1.3-0.4,1.9c-0.3,1.6-0.4,2.6-0.4,3.2c0,0.7-0.8,1.2-1.7,1.2h-0.2c-0.8,0-1.4-0.6-1.2-1.1
										c0.1-0.4,0.3-1.2,0.4-1.9c0.1-0.6,0.2-1.3,0.4-2c0.1-0.7,0.2-1.3,0.3-1.9c0.1-0.8,0.3-1.6,0.3-2.1c0-1.1-0.2-1.4-0.5-1.4
										c-0.9,0-2.2,0.8-3,3c-0.6,1.8-1,5-1.1,6.3c-0.1,0.7-0.9,1.2-1.7,1.2c-0.8,0-1.5-0.6-1.4-1.1c0.2-0.7,0.4-1.7,0.7-3.3
										c0.1-0.5,0.2-1.1,0.3-1.5c0.2-1.4,0.4-2.5,0.4-3.1c0-1,0-1.4-0.6-1.4c-1,0-2.1,1.1-2.8,2.9c-0.5,1.5-1,5-1.2,6.4
										c0,0.7-0.8,1.2-1.7,1.2h-0.2c-0.8,0-1.3-0.6-1.2-1.1c0.1-0.5,0.2-0.9,0.4-1.7c0-0.1,0.1-0.3,0.1-0.3l0,0
										c0.1-0.6,0.2-1.2,0.3-1.9c0.2-1.2,0.4-2.5,0.6-3.7c0.2-0.9,0.2-1.5,0.2-2c0-0.6,0.2-1.1,1-1.3c0.1,0,0.2,0,0.2,0
										c0.1,0,0.1,0,0.1,0c0.1,0,0.2,0,0.3,0C46.3,4,47.2,4.4,47,5c0,0.1,0,0.2-0.1,0.3c0.2-0.2,0.4-0.4,0.6-0.6
										c0.2-0.2,1.2-1,2.5-1c1.8,0,2.5,1.4,2.7,2.5c0.3-0.5,0.8-1.1,1.2-1.5C54.3,4.4,55.2,3.6,56.6,3.6z"/>
									<path class="st0" d="M63.8,10.7c-0.4,2.2-0.6,3.5-0.6,4.3c0,0.6-0.8,1.1-1.7,1.1h-0.2c-0.7,0-1.3-0.6-1.2-1.2
										c0,0,0-0.1,0-0.1c0.1-0.5,0.3-1.1,0.4-2l0.4-2.2c0.5-2.9,0.7-4.4,0.7-5.2c0-0.5,0.2-1.2,1.1-1.2c0.3,0,0.5-0.1,0.8-0.1
										c0.8-0.2,1.4,0.4,1.4,1c0,0.1,0,0.2,0,0.4c-0.1,0.4-0.2,0.9-0.3,1.7L63.8,10.7z M65.5,0.9c0,0.7-0.7,1.9-2,1.9
										c-0.8,0-1.5-0.4-1.5-1.2c0-0.7,0.6-1.8,2-1.8C64.8-0.2,65.5,0.1,65.5,0.9z"/>
									<path class="st0" d="M67.5,10.5c-0.7-0.4-2-1.2-2-2.6c0-1.2,0.8-2.3,1.9-3.2c1.1-0.8,2.9-1,3.8-1c0.7,0,1.1,0,1.5,0.2h0
										c0.7,0.2,1.1,0.8,0.9,1.3c-0.2,0.4-0.6,0.5-1.1,0.5c-0.3,0-0.6,0-0.8-0.2h0c-0.3-0.2-0.7-0.3-1.1-0.3
										c-1.4,0-2.2,1.1-2.2,1.9c0,1,0.7,1.4,1.4,1.9L71,9.7c0.7,0.4,1.8,1.1,1.8,2.4c0,1-0.5,2.2-1.9,3.3c-1.3,1-3,1-4,1
										c-0.6,0-1.2-0.1-1.6-0.2c-0.8-0.2-1.3-0.8-1.2-1.3c0.3-0.7,1.2-1,1.9-0.7h0c0.4,0.2,0.9,0.4,1.7,0.4c1.5,0,2.2-0.9,2.2-1.8
										c0-0.9-0.5-1.2-1.1-1.6L67.5,10.5z"/>
									<path class="st0" d="M75.8,10.5c-0.7-0.4-2-1.2-2-2.6c0-1.2,0.8-2.3,1.9-3.2c1.1-0.8,2.9-1,3.8-1c0.7,0,1.1,0,1.5,0.2h0
										c0.7,0.2,1.1,0.8,0.9,1.3c-0.2,0.4-0.6,0.5-1.1,0.5c-0.3,0-0.6,0-0.8-0.2h0c-0.3-0.2-0.7-0.3-1.1-0.3
										c-1.4,0-2.2,1.1-2.2,1.9c0,1,0.7,1.4,1.4,1.9l1.1,0.7c0.7,0.4,1.8,1.1,1.8,2.4c0,1-0.5,2.2-1.9,3.3c-1.3,1-3,1-4,1
										c-0.6,0-1.2-0.1-1.6-0.2c-0.8-0.2-1.3-0.8-1.2-1.3c0.3-0.7,1.2-1,1.9-0.7h0c0.4,0.2,0.9,0.4,1.7,0.4c1.5,0,2.2-0.9,2.2-1.8
										c0-0.9-0.5-1.2-1.1-1.6L75.8,10.5z"/>
									<path class="st0" d="M85.6,10.7c-0.4,2.2-0.6,3.5-0.6,4.3c0,0.6-0.8,1.1-1.7,1.1H83c-0.7,0-1.3-0.6-1.2-1.2
										c0,0,0-0.1,0-0.1c0.1-0.5,0.3-1.1,0.4-2l0.4-2.2c0.5-2.9,0.7-4.4,0.7-5.2c0-0.5,0.2-1.2,1.1-1.2c0.3,0,0.5-0.1,0.8-0.1
										c0.8-0.2,1.4,0.4,1.4,1c0,0.1,0,0.2,0,0.4c-0.1,0.4-0.2,0.9-0.3,1.7L85.6,10.7z M87.3,0.9c0,0.7-0.7,1.9-2,1.9
										c-0.8,0-1.5-0.4-1.5-1.2c0-0.7,0.6-1.8,2-1.8C86.6-0.2,87.3,0.1,87.3,0.9z"/>
									<path class="st0" d="M97.9,4.8C99,6,99.1,7.3,99.1,7.9c0,3.5-2.2,8.5-7.3,8.5c-1.3,0-2.6-0.4-3.4-1.1
										c-0.5-0.5-1.4-1.5-1.4-3.5c0-3.6,2.4-8.1,7.4-8.1C95.9,3.7,97.2,4.1,97.9,4.8z M95.4,5.8c-0.3-0.2-0.7-0.6-1.4-0.6
										c-3.2,0-4,5.1-4,6.9c0,2.1,0.9,2.8,1.9,2.8c3.5,0,4-6,4-7.1C96,7.3,95.9,6.3,95.4,5.8z"/>
									<path class="st0" d="M100.7,8.2c0.2-0.9,0.3-2,0.3-2.9V5.2c0-0.5,0.3-1.1,1.1-1.2c0.2,0,0.4,0,0.6-0.1c0,0,0.1,0,0.1,0
										c0.7-0.1,1.5,0.4,1.4,0.9c0,0.3,0.1-0.2,0,0.4c0.1-0.1,0.3-0.3,0.4-0.4c0.9-0.7,2.1-1.1,3.4-1.1c1.4,0,3.3,0.5,3.3,2.4
										c0,0.4-0.1,0.9-0.2,1.9c-0.1,0.5-0.2,1-0.3,1.6c-0.1,0.5-0.2,1-0.3,1.5c-0.2,1-0.5,2.8-0.6,3.9c0,0.7-0.8,1.2-1.7,1.2H108
										c-0.7,0-1.4-0.5-1.2-1c0.2-0.7,0.5-1.8,0.8-3.9l0.3-1.5c0.2-1.1,0.3-2,0.3-2.6c0-1.1-0.3-1.5-1.3-1.5
										c-0.8,0-1.9,0.7-2.5,1.5c-0.7,0.9-1,2.5-1.2,3.7l-0.4,2.6c-0.1,0.7-0.2,1.2-0.2,1.6c0,0.6-0.8,1.1-1.7,1.1h-0.2
										c-0.8,0-1.4-0.5-1.3-1c0.2-0.8,0.4-1.6,0.5-2.6L100.7,8.2z"/>
								</g>
								<g transform="translate(108.000000, 0.000000)">
									<path class="st0" d="M5.1,6.3c0.1-0.4,0.6-0.6,1.1-0.6c0.4-2.4,1.1-3.5,2.3-4.5c1-0.7,2.2-0.9,3.2-1c0.7,0,1.2,0.5,1,1
										c-0.2,0.5-1,0.7-1.7,0.7C9.9,2,9.4,3.7,9,5.7h0.7c0.1,0,0.2,0,0.2,0h0.6c0.6,0,1.2,0.4,1.1,0.8c-0.1,0.4-0.7,0.7-1.4,0.7
										c-0.3,0-1,0-1.2,0H8.7c-0.2,1.2-0.4,2.3-0.6,3.5c-0.2,1.2-0.4,2.4-0.6,3.6c0,0.2,0,0.4-0.1,0.5c0,0.2-0.1,0.4-0.1,0.6
										c-0.1,0.3-0.1,0.7-0.2,1.1c-0.4,2.1-1.6,6.7-6.1,6.9c-0.7,0-1.1-0.6-1-1c0.2-0.5,0.9-0.7,1.5-0.7c0.6-0.1,1.1-0.6,1.3-0.9
										c0.7-0.8,1.1-3.1,1.6-5.8c0.2-1.2,0.4-2.6,0.6-3.9c0.2-1.3,0.4-2.6,0.6-3.8C5.3,7,5,6.6,5.1,6.3z"/>
									<path class="st0" d="M20.4,6c0.8-0.2,1.5,0.4,1.4,1c-0.2,0.7-0.4,1.9-0.8,3.9l-0.4,2.2c-0.3,1.8-0.5,3.4-0.5,4
										c0,0.6-0.7,1-1.5,1c-0.8,0-1.4-0.4-1.4-1c0-0.4,0.1-0.9,0.2-1.4c-0.9,1.2-2.1,2.6-3.8,2.6c-1.8,0-3.7-1.2-3.7-3.7
										c0-1,0.6-5.1,3.9-7.7c0.5-0.4,1.8-1.2,3.9-1.2c1,0,1.7,0.2,2.4,0.5L20.4,6z M18.7,7.5c-0.4-0.1-0.9-0.3-1.4-0.3
										c-3.4,0-4.3,4.8-4.3,6.6c0,1.5,0.4,2.6,1.5,2.6c0.6,0,1.5-0.4,2.2-1.5c0.6-0.8,1-2.1,1.4-4.3L18.7,7.5z"/>
									<path class="st0" d="M31.6,5.9c0.7,0.2,0.9,0.8,0.7,1.2c-0.1,0.4-0.5,0.5-1,0.5c-0.3,0-0.5,0-0.7-0.1h0
										c-0.3-0.1-0.6-0.2-0.9-0.2c-2.7,0-4.3,3-4.3,6c0,1.1,0.2,2.4,1.2,3c0.6,0.4,1.1,0.5,1.7,0.5c0.5,0,0.9-0.1,1.3-0.2
										c0.6-0.2,1.1,0.3,1,0.7c-0.2,0.5-0.9,0.9-1.6,1c-0.3,0-0.8,0.1-1.2,0.1c-3.5,0-5.7-1.9-5.7-4.9c0-3.5,2.5-7.8,7.9-7.8
										C30.7,5.7,31.2,5.8,31.6,5.9z"/>
									<path class="st0" d="M36.5,5.7c0.1,0,0.2,0,0.3,0c0.3,0,0.6,0,0.8,0c0.7-0.1,1.2,0.4,1.1,0.8C38.6,7,38,7.3,37.2,7.3
										c-0.4,0-0.8,0-1.1,0c0,0.1,0,0.2-0.1,0.3c-0.1,0.5-0.2,1.2-0.4,1.9c-0.1,0.6-0.2,1.3-0.4,1.9c-0.1,0.5-0.2,1-0.3,1.3
										c-0.2,1.2-0.4,2.2-0.4,2.8c0,0.8,0.4,1.2,0.8,1.2c0.1,0,0.3,0,0.5-0.1c0.6-0.1,1.2,0.3,1.1,0.7c-0.1,0.6-0.7,1-1.5,1.2
										c-0.2,0-0.4,0-0.6,0c-1.5,0-2.5-0.4-2.8-0.9c-0.3-0.5-0.5-0.9-0.5-1.3c0-0.4,0.1-0.9,0.2-1.5l1.4-7.4
										c-0.4-0.1-0.8-0.4-0.7-0.8C32.6,6,33,5.7,33.6,5.7c0.1-0.6,0.2-1,0.2-1.5c0.1-0.7,0.7-1.3,1.7-1.6c0.8-0.2,1.6,0.3,1.4,0.8
										C36.7,4.2,36.6,4.8,36.5,5.7L36.5,5.7z"/>
									<path class="st0" d="M49.4,9.9c0.2-1.2,0.3-1.9,0.3-2.4c0-0.6,0.3-1.1,1.1-1.2c0.2,0,0.4,0,0.6-0.1h0
										c0.8-0.2,1.6,0.3,1.5,0.8c0,0.1,0,0.3-0.1,0.4c0,0.1-0.1,0.2-0.1,0.3C53,7.2,53.5,6.8,54,6.4c0.4-0.2,0.8-0.4,1.3-0.6
										c0.8-0.2,1.5,0.4,1.3,1c-0.2,0.6-1,1-1.9,1.2h0c-0.8,0.2-2,1.2-2.6,3.4c-0.3,1.2-0.8,4.1-1,5.5c-0.1,0.7-0.8,1.2-1.7,1.2
										h-0.1c-0.8,0-1.5-0.5-1.3-1.1c0.1-0.4,0.2-0.8,0.3-1.1L49.4,9.9z"/>
									<path class="st0" d="M59.1,18.2c-0.7-0.2-1.4-0.6-1.4-1.2c-0.2-2.6-0.4-3.7-0.9-6.6c-0.3-1.7-0.5-2.7-0.7-3.3v0
										C56,6.5,56.6,6,57.3,6h0.5c0.9,0,1.6,0.6,1.7,1.3c0,0.5,0.1,1.2,0.2,2.1c0.3,2,0.5,3.7,0.8,5.8c0.2-0.3,0.3-0.7,0.4-1
										c1.5-3.6,2.3-5.7,2.7-6.9c0.2-0.8,1-1.3,2-1.2h0.2c0.7,0,1.2,0.6,0.9,1c-0.1,0.1-0.1,0.2-0.2,0.3c-0.5,1-1.1,2.3-1.5,3.2
										l-3.6,7.9c-1.2,2.4-2.7,4.8-6,5.3c-0.8,0-1.5-0.5-1.4-1c0.2-0.7,1-1.1,1.8-1.1c1.3-0.1,2.2-1.6,2.7-2.4L59.1,18.2z"/>
								</g>
								<path class="st0" d="M156.1,12.9l-0.2-0.2v0c0,0,0,0,0-0.1l0,0v-0.8l0,0c0,0,0,0,0-0.1v0l0.4-0.3l0.4-0.4c0,0,0-0.1,0-0.1
									c-0.1-0.3-0.1-0.7-0.3-1c0,0,0,0-0.1-0.1l-0.7-0.2l-0.4-0.1l0,0c0,0,0,0-0.1,0l0,0l-0.4-0.7l0,0c0,0,0,0,0-0.1l0,0l0.1-0.2
									l0.3-0.8c0,0,0-0.1,0-0.1c-0.2-0.3-0.5-0.5-0.7-0.7c0,0-0.1,0-0.1,0l-1.1,0.3l0,0c0,0,0,0-0.1,0l0,0l-0.7-0.4l0,0
									c0,0,0,0,0-0.1l0,0l-0.2-1c0,0,0-0.1-0.1-0.1c-0.3-0.1-0.7-0.2-1-0.3c0,0-0.1,0-0.1,0l-0.8,0.8h0c0,0,0,0-0.1,0l0,0h-0.8
									l0,0c0,0,0,0-0.1,0h0l-0.4-0.5l-0.3-0.3c0,0-0.1,0-0.1,0c-0.3,0.1-0.7,0.1-1,0.3c0,0,0,0-0.1,0.1L147.7,7l-0.1,0.2l0,0
									c0,0,0,0,0,0.1l0,0L147,7.6l0,0c0,0,0,0-0.1,0l0,0l-1-0.3c0,0-0.1,0-0.1,0c-0.3,0.2-0.5,0.5-0.7,0.7c0,0,0,0.1,0,0.1
									l0.2,0.8l0.1,0.3l0,0c0,0,0,0,0,0.1l0,0l-0.2,0.3L145,9.8l0,0c0,0,0,0-0.1,0l0,0l-0.3,0.1L144,10c0,0-0.1,0-0.1,0.1
									c-0.1,0.3-0.2,0.7-0.3,1c0,0,0,0.1,0,0.1l0.3,0.3l0.4,0.4v0c0,0,0,0,0,0.1l0,0v0.8l0,0c0,0,0,0,0,0.1v0l-0.3,0.3l-0.5,0.4
									c0,0,0,0,0,0.1c0.1,0.3,0.1,0.7,0.3,1c0,0,0,0,0.1,0.1l0.6,0.1l0.5,0.1l0,0c0,0,0,0,0.1,0l0,0l0.4,0.7l0,0c0,0,0,0,0,0.1
									l0,0l-0.3,1c0,0,0,0.1,0,0.1c0.2,0.3,0.5,0.5,0.7,0.7c0,0,0.1,0,0.1,0l0.3-0.1L147,17l0,0c0,0,0,0,0.1,0l0,0l0.6,0.3
									l0.1,0.1l0,0c0,0,0,0,0,0.1l0,0l0.1,0.7l0.1,0.4c0,0,0,0.1,0.1,0.1c0.3,0.1,0.7,0.2,1,0.3c0,0,0.1,0,0.1,0l0.6-0.6l0.2-0.2
									h0c0,0,0,0,0.1,0l0,0h0.8l0,0c0,0,0,0,0.1,0h0l0.1,0.1l0.6,0.7c0,0,0.1,0,0.1,0c0.3-0.1,0.7-0.1,1-0.3c0,0,0,0,0.1-0.1
									l0.2-0.6l0.1-0.4l0,0c0,0,0,0,0-0.1l0,0l0.2-0.1l0.5-0.3l0,0c0,0,0,0,0.1,0l0,0l1,0.3c0,0,0.1,0,0.1,0
									c0.3-0.2,0.5-0.5,0.7-0.7c0,0,0-0.1,0-0.1l-0.1-0.3l-0.2-0.7l0,0c0,0,0,0,0-0.1l0,0l0.1-0.2l0.3-0.5l0,0c0,0,0,0,0.1,0l0,0
									l0.9-0.2l0.2,0c0,0,0.1,0,0.1-0.1c0.1-0.3,0.2-0.7,0.3-1c0,0,0-0.1,0-0.1L156.1,12.9z M146.1,12.3c0-0.5,0.1-1.1,0.3-1.5
									c0.6-1.5,2.1-2.5,3.8-2.5c0.3,0,0.5,0,0.8,0.1c1.8,0.4,3.2,2,3.2,4c0,2.2-1.8,4.1-4.1,4.1C147.9,16.4,146.1,14.5,146.1,12.3
									z"/>
							</g>
						</g>
						<g transform="translate(175.000000, 6.000000)">
							<polygon class="st0" points="1.3,2.8 1.3,0.9 0.6,0.9 0.6,0.6 2.4,0.6 2.4,0.9 1.7,0.9 1.7,2.8 							"/>
							<polygon class="st0" points="4.6,2.8 4.6,1.1 3.9,2.8 3.8,2.8 3.1,1.1 3.1,2.8 2.7,2.8 2.7,0.6 3.2,0.6 3.8,2.1 4.5,0.6 
								5,0.6 5,2.8 							"/>
						</g>
					</g>
				</g>
			</g>
		</g>
	</g>
	<g>
		<g>
			<g>
				<path class="st1" d="M118.1,21.9h1.4c1.2,0,1.9,0.6,1.9,1.6c0,1.1-0.8,1.7-2,1.7h-0.7v2.4h-0.6V21.9z M119.5,22.4h-0.8v2.3h0.7
					c0.9,0,1.4-0.4,1.4-1.2C120.8,22.8,120.3,22.4,119.5,22.4z"/>
				<path class="st1" d="M124.8,27.6l-0.1-0.5c-0.4,0.3-0.8,0.6-1.4,0.6c-0.7,0-1.2-0.4-1.2-1.1c0-0.9,0.7-1.3,2.5-1.5v-0.3
					c0-0.5-0.3-0.7-0.8-0.7c-0.5,0-0.9,0.1-1.3,0.3l-0.1-0.5c0.5-0.2,0.9-0.3,1.4-0.3c0.9,0,1.3,0.4,1.3,1.2v2.8H124.8z M124.6,25.6
					c-1.5,0.2-2,0.5-2,1.1c0,0.4,0.3,0.6,0.7,0.6c0.4,0,0.9-0.2,1.3-0.6V25.6z"/>
				<path class="st1" d="M127,25.2v2.4h-0.5v-3.9h0.4l0.1,0.8c0.3-0.4,0.7-0.9,1.4-0.9l0.1,0.5C127.8,24.2,127.2,24.7,127,25.2z"/>
				<path class="st1" d="M130.5,27.7c-0.6,0-1-0.2-1-1v-2.5h-0.6v-0.5h0.6v-1.4l0.5-0.1v1.4h0.9l0.1,0.5h-1v2.5
					c0,0.4,0.2,0.6,0.6,0.6c0.1,0,0.3,0,0.4,0l0.1,0.5C130.9,27.7,130.7,27.7,130.5,27.7z"/>
				<path class="st1" d="M135.4,27.7c-1,0-1.7-0.7-1.7-2c0-1.3,0.8-2,1.7-2c1,0,1.8,0.7,1.8,2C137.2,27,136.4,27.7,135.4,27.7z
					 M135.4,24.1c-0.7,0-1.2,0.6-1.2,1.6c0,0.9,0.5,1.6,1.2,1.6c0.7,0,1.2-0.6,1.2-1.6C136.6,24.7,136.1,24.1,135.4,24.1z"/>
				<path class="st1" d="M139.6,22.2c-0.4,0-0.6,0.2-0.6,0.6v0.9h0.8l0.1,0.5H139v3.4h-0.5v-3.4h-0.6v-0.5h0.6v-0.9
					c0-0.7,0.4-1,1.1-1c0.1,0,0.2,0,0.3,0l0.1,0.5C139.8,22.3,139.7,22.2,139.6,22.2z"/>
				<path class="st1" d="M146,25.8h-2.5l-0.7,1.8h-0.6l2.2-5.7h0.6l2.2,5.6l-0.6,0.1L146,25.8z M143.8,25.3h2.1l-1.1-2.7L143.8,25.3
					z"/>
				<path class="st1" d="M152.1,27.7h-0.5l-1-3.2l-1,3.2h-0.5l-1.3-3.9l0.5-0.1l1,3.3l1-3.2h0.5l1,3.2l1-3.2h0.6L152.1,27.7z"/>
				<path class="st1" d="M154.7,22.8c-0.2,0-0.4-0.2-0.4-0.4c0-0.2,0.2-0.4,0.4-0.4s0.4,0.2,0.4,0.4C155,22.6,154.9,22.8,154.7,22.8
					z M154.4,27.6v-3.9h0.5v3.9H154.4z"/>
				<path class="st1" d="M158.8,27.6v-2.7c0-0.5-0.2-0.8-0.7-0.8c-0.4,0-0.8,0.3-1.3,0.7v2.8h-0.5v-3.9h0.4l0.1,0.6
					c0.4-0.4,0.9-0.7,1.4-0.7c0.8,0,1.2,0.4,1.2,1.2v2.8H158.8z"/>
			</g>
		</g>
		<g>
			<g>
				<path class="st0" d="M117.9,21.8h1.4c1.2,0,1.9,0.6,1.9,1.6c0,1.1-0.8,1.7-2,1.7h-0.7v2.4h-0.6V21.8z M119.2,22.3h-0.8v2.3h0.7
					c0.9,0,1.4-0.4,1.4-1.2C120.6,22.7,120.1,22.3,119.2,22.3z"/>
				<path class="st0" d="M124.5,27.5l-0.1-0.5c-0.4,0.3-0.8,0.6-1.4,0.6c-0.7,0-1.2-0.4-1.2-1.1c0-0.9,0.7-1.3,2.5-1.5v-0.3
					c0-0.5-0.3-0.7-0.8-0.7c-0.5,0-0.9,0.1-1.3,0.3l-0.1-0.5c0.5-0.2,0.9-0.3,1.4-0.3c0.9,0,1.3,0.4,1.3,1.2v2.8H124.5z M124.4,25.4
					c-1.5,0.2-2,0.5-2,1.1c0,0.4,0.3,0.6,0.7,0.6c0.4,0,0.9-0.2,1.3-0.6V25.4z"/>
				<path class="st0" d="M126.7,25v2.4h-0.5v-3.9h0.4l0.1,0.8c0.3-0.4,0.7-0.9,1.4-0.9l0.1,0.5C127.6,24,127,24.5,126.7,25z"/>
				<path class="st0" d="M130.3,27.5c-0.6,0-1-0.2-1-1V24h-0.6v-0.5h0.6v-1.4l0.5-0.1v1.4h0.9l0.1,0.5h-1v2.5c0,0.4,0.2,0.6,0.6,0.6
					c0.1,0,0.3,0,0.4,0l0.1,0.5C130.7,27.5,130.5,27.5,130.3,27.5z"/>
				<path class="st0" d="M135.2,27.5c-1,0-1.7-0.7-1.7-2c0-1.3,0.8-2,1.7-2c1,0,1.8,0.7,1.8,2C137,26.8,136.2,27.5,135.2,27.5z
					 M135.2,24c-0.7,0-1.2,0.6-1.2,1.6c0,0.9,0.5,1.6,1.2,1.6c0.7,0,1.2-0.6,1.2-1.6C136.4,24.6,135.9,24,135.2,24z"/>
				<path class="st0" d="M139.4,22.1c-0.4,0-0.6,0.2-0.6,0.6v0.9h0.8l0.1,0.5h-0.9v3.4h-0.5V24h-0.6v-0.5h0.6v-0.9
					c0-0.7,0.4-1,1.1-1c0.1,0,0.2,0,0.3,0l0.1,0.5C139.6,22.1,139.5,22.1,139.4,22.1z"/>
				<path class="st0" d="M145.8,25.6h-2.5l-0.7,1.8h-0.6l2.2-5.7h0.6l2.2,5.6l-0.6,0.1L145.8,25.6z M143.5,25.1h2.1l-1.1-2.7
					L143.5,25.1z"/>
				<path class="st0" d="M151.9,27.5h-0.5l-1-3.2l-1,3.2H149l-1.3-3.9l0.5-0.1l1,3.3l1-3.2h0.5l1,3.2l1-3.2h0.6L151.9,27.5z"/>
				<path class="st0" d="M154.4,22.6c-0.2,0-0.4-0.2-0.4-0.4s0.2-0.4,0.4-0.4s0.4,0.2,0.4,0.4S154.7,22.6,154.4,22.6z M154.2,27.5
					v-3.9h0.5v3.9H154.2z"/>
				<path class="st0" d="M158.6,27.5v-2.7c0-0.5-0.2-0.8-0.7-0.8c-0.4,0-0.8,0.3-1.3,0.7v2.8h-0.5v-3.9h0.4l0.1,0.6
					c0.4-0.4,0.9-0.7,1.4-0.7c0.8,0,1.2,0.4,1.2,1.2v2.8H158.6z"/>
			</g>
		</g>
	</g>
</g>
</svg>
