<?xml version="1.0" encoding="UTF-8"?>
<svg width="12px" height="13px" viewBox="0 0 12 13" version="1.1" xmlns="http://www.w3.org/2000/svg" xmlns:xlink="http://www.w3.org/1999/xlink">
    <!-- Generator: Sketch 49.3 (51167) - http://www.bohemiancoding.com/sketch -->
    <title></title>
    <desc>Created with Sketch.</desc>
    <defs></defs>
    <g id="Symbols" stroke="none" stroke-width="1" fill="none" fill-rule="evenodd" opacity="0.600000024">
        <g id="Component-/-Footer" transform="translate(-1273.000000, -66.000000)" fill="#FFFFFF">
            <g id="LinkedIn" transform="translate(1261.000000, 55.000000)">
                <path d="M21.9257812,21.8242188 L21.9257812,18.515625 C21.9257812,17.950518 21.7252624,17.4674499 21.3242188,17.0664062 C20.9231751,16.6653626 20.440107,16.4648438 19.875,16.4648438 C19.6015611,16.4648438 19.3281264,16.5423169 19.0546875,16.6972656 C18.7812486,16.8522143 18.5716153,17.0481759 18.4257812,17.2851562 L18.4257812,16.5742188 L16.6757812,16.5742188 L16.6757812,21.8242188 L18.4257812,21.8242188 L18.4257812,18.734375 C18.4257812,18.4973946 18.5078117,18.2923186 18.671875,18.1191406 C18.8359383,17.9459627 19.0410144,17.859375 19.2871094,17.859375 C19.5332044,17.859375 19.7428377,17.9459627 19.9160156,18.1191406 C20.0891936,18.2923186 20.1757812,18.4973946 20.1757812,18.734375 L20.1757812,21.8242188 L21.9257812,21.8242188 Z M13.859375,15.2890625 C14.0781261,15.4895843 14.3333319,15.5898438 14.625,15.5898438 C14.9166681,15.5898438 15.1673167,15.4895843 15.3769531,15.2890625 C15.5865896,15.0885407 15.6914062,14.8424494 15.6914062,14.5507812 C15.6914062,14.2591131 15.5865896,14.0084646 15.3769531,13.7988281 C15.1673167,13.5891917 14.9166681,13.484375 14.625,13.484375 C14.3333319,13.484375 14.0826833,13.5891917 13.8730469,13.7988281 C13.6634104,14.0084646 13.5585938,14.2591131 13.5585938,14.5507812 C13.5585938,14.8424494 13.6588532,15.0885407 13.859375,15.2890625 Z M15.5,21.8242188 L15.5,16.5742188 L13.75,16.5742188 L13.75,21.8242188 L15.5,21.8242188 Z M22.5,11.9257812 C22.8281266,11.9257812 23.1061187,12.0397124 23.3339844,12.2675781 C23.5618501,12.4954438 23.6757812,12.7643214 23.6757812,13.0742188 L23.6757812,22.4257812 C23.6757812,22.7356786 23.5618501,23.0045562 23.3339844,23.2324219 C23.1061187,23.4602876 22.8281266,23.5742188 22.5,23.5742188 L13.1757812,23.5742188 C12.8476546,23.5742188 12.5696626,23.4602876 12.3417969,23.2324219 C12.1139312,23.0045562 12,22.7356786 12,22.4257812 L12,13.0742188 C12,12.7643214 12.1139312,12.4954438 12.3417969,12.2675781 C12.5696626,12.0397124 12.8476546,11.9257812 13.1757812,11.9257812 L22.5,11.9257812 Z" id=""></path>
            </g>
        </g>
    </g>
</svg>