<?xml version="1.0" encoding="UTF-8"?>
<svg width="12px" height="13px" viewBox="0 0 12 13" version="1.1" xmlns="http://www.w3.org/2000/svg" xmlns:xlink="http://www.w3.org/1999/xlink">
    <!-- Generator: Sketch 49.3 (51167) - http://www.bohemiancoding.com/sketch -->
    <title></title>
    <desc>Created with Sketch.</desc>
    <defs></defs>
    <g id="Symbols" stroke="none" stroke-width="1" fill="none" fill-rule="evenodd" opacity="0.600000024">
        <g id="Component-/-Footer" transform="translate(-1185.000000, -66.000000)" fill="#FFFFFF">
            <g id="Facebook" transform="translate(1173.000000, 55.000000)">
                <path d="M21.9257812,14.25 L20.4492188,14.25 C19.8841118,14.25 19.4056009,14.4505188 19.0136719,14.8515625 C18.6217428,15.2526062 18.4257812,15.7356743 18.4257812,16.3007812 L18.4257812,17.75 L17.25,17.75 L17.25,19.5 L18.4257812,19.5 L18.4257812,23.5742188 L20.1757812,23.5742188 L20.1757812,19.5 L21.9257812,19.5 L21.9257812,17.75 L20.1757812,17.75 L20.1757812,16.5742188 C20.1757812,16.4283847 20.2304682,16.2962246 20.3398438,16.1777344 C20.4492193,16.0592442 20.5859367,16 20.75,16 L21.9257812,16 L21.9257812,14.25 Z M12,11.9257812 L23.6757812,11.9257812 L23.6757812,23.5742188 L12,23.5742188 L12,11.9257812 Z" id=""></path>
            </g>
        </g>
    </g>
</svg>