<?xml version="1.0" encoding="UTF-8"?>
<svg width="16px" height="16px" viewBox="0 0 16 16" version="1.1" xmlns="http://www.w3.org/2000/svg" xmlns:xlink="http://www.w3.org/1999/xlink">
    <!-- Generator: Sketch 49.3 (51167) - http://www.bohemiancoding.com/sketch -->
    <title>Label Copy</title>
    <desc>Created with Sketch.</desc>
    <defs></defs>
    <g id="Desktop" stroke="none" stroke-width="1" fill="none" fill-rule="evenodd">
        <g id="4b.-Directory---Entry" transform="translate(-276.000000, -239.000000)" fill="#8D9199">
            <path d="M289.255859,242.75 L287.357422,242.75 C286.630856,242.75 286.015628,243.00781 285.511719,243.523438 C285.00781,244.039065 284.755859,244.660153 284.755859,245.386719 L284.755859,247.25 L283.244141,247.25 L283.244141,249.5 L284.755859,249.5 L284.755859,254.738281 L287.005859,254.738281 L287.005859,249.5 L289.255859,249.5 L289.255859,247.25 L287.005859,247.25 L287.005859,245.738281 C287.005859,245.55078 287.076171,245.38086 287.216797,245.228516 C287.357423,245.076171 287.533202,245 287.744141,245 L289.255859,245 L289.255859,242.75 Z M276.494141,239.761719 L291.505859,239.761719 L291.505859,254.738281 L276.494141,254.738281 L276.494141,239.761719 Z" id="Label-Copy"></path>
        </g>
    </g>
</svg>