<?xml version="1.0" encoding="UTF-8"?>
<svg width="18px" height="18px" viewBox="0 0 18 18" version="1.1" xmlns="http://www.w3.org/2000/svg" xmlns:xlink="http://www.w3.org/1999/xlink">
    <!-- Generator: Sketch 49.3 (51167) - http://www.bohemiancoding.com/sketch -->
    <title>Label Copy</title>
    <desc>Created with Sketch.</desc>
    <defs></defs>
    <g id="Desktop" stroke="none" stroke-width="1" fill="none" fill-rule="evenodd">
        <g id="4a.-Directory---Home" transform="translate(-371.000000, -353.000000)" fill="#8E9A9F">
            <g id="Group-2" transform="translate(130.000000, 334.000000)">
                <path d="M254.015625,30.015625 L258.984375,34.984375 L257.484375,36.484375 L252.515625,31.515625 L252.515625,30.71875 L252.234375,30.4375 C251.015619,31.4687552 249.609383,31.984375 248.015625,31.984375 C246.203116,31.984375 244.664069,31.3515688 243.398438,30.0859375 C242.132806,28.8203062 241.5,27.2890715 241.5,25.4921875 C241.5,23.6953035 242.132806,22.1640688 243.398438,20.8984375 C244.664069,19.6328062 246.195304,19 247.992188,19 C249.789071,19 251.320306,19.6328062 252.585938,20.8984375 C253.851569,22.1640688 254.484375,23.7031159 254.484375,25.515625 C254.484375,27.109383 253.968755,28.5156189 252.9375,29.734375 L253.21875,30.015625 L254.015625,30.015625 Z M244.828125,28.703125 C245.703129,29.5781294 246.765619,30.015625 248.015625,30.015625 C249.265631,30.015625 250.328121,29.5781294 251.203125,28.703125 C252.078129,27.8281206 252.515625,26.7656312 252.515625,25.515625 C252.515625,24.2656188 252.078129,23.2031294 251.203125,22.328125 C250.328121,21.4531206 249.265631,21.015625 248.015625,21.015625 C246.765619,21.015625 245.703129,21.4531206 244.828125,22.328125 C243.953121,23.2031294 243.515625,24.2656188 243.515625,25.515625 C243.515625,26.7656312 243.953121,27.8281206 244.828125,28.703125 Z" id="Label-Copy"></path>
            </g>
        </g>
    </g>
</svg>