<?xml version="1.0" encoding="UTF-8"?>
<svg width="16px" height="16px" viewBox="0 0 16 16" version="1.1" xmlns="http://www.w3.org/2000/svg" xmlns:xlink="http://www.w3.org/1999/xlink">
    <!-- Generator: Sketch 49.3 (51167) - http://www.bohemiancoding.com/sketch -->
    <title>Label Copy 2</title>
    <desc>Created with Sketch.</desc>
    <defs></defs>
    <g id="Desktop" stroke="none" stroke-width="1" fill="none" fill-rule="evenodd">
        <g id="4b.-Directory---Entry" transform="translate(-324.000000, -239.000000)" fill="#8D9199">
            <path d="M337.994141,243.136719 L337.994141,241.625 C337.994141,241.367186 337.865236,241.238281 337.607422,241.238281 L336.130859,241.238281 C335.873046,241.238281 335.744141,241.367186 335.744141,241.625 L335.744141,243.136719 C335.744141,243.371095 335.873046,243.488281 336.130859,243.488281 L337.607422,243.488281 C337.865236,243.488281 337.994141,243.371095 337.994141,243.136719 Z M326.357422,253.261719 L337.607422,253.261719 C337.865236,253.261719 337.994141,253.132814 337.994141,252.875 L337.994141,246.511719 L336.412109,246.511719 C336.458985,246.79297 336.482422,247.039061 336.482422,247.25 C336.482422,248.492194 336.042973,249.55273 335.164062,250.431641 C334.285152,251.310551 333.224616,251.75 331.982422,251.75 C330.740228,251.75 329.679692,251.310551 328.800781,250.431641 C327.921871,249.55273 327.482422,248.492194 327.482422,247.25 C327.482422,246.992186 327.505859,246.746095 327.552734,246.511719 L326.005859,246.511719 L326.005859,252.875 C326.005859,253.132814 326.123046,253.261719 326.357422,253.261719 Z M334.126953,245.140625 C333.541013,244.554685 332.832035,244.261719 332,244.261719 C331.167965,244.261719 330.458987,244.554685 329.873047,245.140625 C329.287106,245.726565 328.994141,246.429683 328.994141,247.25 C328.994141,248.070317 329.287106,248.773435 329.873047,249.359375 C330.458987,249.945315 331.167965,250.238281 332,250.238281 C332.832035,250.238281 333.541013,249.945315 334.126953,249.359375 C334.712894,248.773435 335.005859,248.070317 335.005859,247.25 C335.005859,246.429683 334.712894,245.726565 334.126953,245.140625 Z M337.994141,239.761719 C338.416018,239.761719 338.773436,239.908202 339.066406,240.201172 C339.359376,240.494142 339.505859,240.839842 339.505859,241.238281 L339.505859,253.261719 C339.505859,253.660158 339.359376,254.005858 339.066406,254.298828 C338.773436,254.591798 338.416018,254.738281 337.994141,254.738281 L326.005859,254.738281 C325.583982,254.738281 325.226564,254.591798 324.933594,254.298828 C324.640624,254.005858 324.494141,253.660158 324.494141,253.261719 L324.494141,241.238281 C324.494141,240.839842 324.640624,240.494142 324.933594,240.201172 C325.226564,239.908202 325.583982,239.761719 326.005859,239.761719 L337.994141,239.761719 Z" id="Label-Copy-2"></path>
        </g>
    </g>
</svg>