<?xml version="1.0" standalone="no"?>
<!DOCTYPE svg PUBLIC "-//W3C//DTD SVG 20010904//EN"
 "http://www.w3.org/TR/2001/REC-SVG-20010904/DTD/svg10.dtd">
<svg version="1.0" xmlns="http://www.w3.org/2000/svg"
 width="997.000000pt" height="997.000000pt" viewBox="0 0 997.000000 997.000000"
 preserveAspectRatio="xMidYMid meet">
<metadata>
Created by potrace 1.14, written by Peter Selinger 2001-2017
</metadata>
<g transform="translate(0.000000,997.000000) scale(0.100000,-0.100000)"
fill="#000000" stroke="none">
<path d="M4074 9790 c-5 -4 -26 -11 -48 -14 -21 -4 -41 -8 -45 -11 -4 -2 -18
-6 -32 -9 -46 -10 -65 -14 -249 -61 -102 -26 -220 -56 -264 -67 -84 -21 -120
-39 -131 -66 -6 -14 -30 -100 -39 -137 -2 -5 -8 -30 -15 -55 -7 -25 -13 -46
-13 -47 1 -2 -4 -17 -10 -35 -15 -50 -59 -211 -62 -228 -1 -8 -10 -37 -19 -65
-9 -27 -19 -61 -21 -75 -3 -14 -5 -25 -6 -25 -1 0 -4 -8 -14 -50 -19 -83 -32
-94 -271 -220 -22 -11 -59 -33 -82 -48 -24 -15 -47 -27 -52 -27 -5 0 -14 -7
-21 -15 -7 -9 -15 -13 -18 -10 -3 3 -14 -3 -24 -12 -32 -29 -100 -24 -198 14
-8 4 -17 7 -20 8 -3 1 -25 8 -50 15 -57 17 -53 16 -70 22 -63 24 -148 52 -160
53 -14 2 -22 5 -67 22 -10 3 -22 7 -28 9 -5 1 -50 16 -100 34 -115 40 -145 44
-183 28 -28 -11 -229 -199 -494 -460 -97 -96 -98 -103 -48 -270 17 -57 33
-112 34 -123 2 -11 6 -27 9 -35 18 -47 31 -96 42 -158 4 -23 12 -45 16 -48 5
-3 9 -18 9 -33 0 -15 5 -32 12 -39 7 -7 9 -12 6 -12 -4 0 0 -24 9 -52 8 -29
16 -57 17 -63 1 -5 4 -14 7 -20 13 -22 0 -108 -20 -136 -12 -15 -21 -31 -21
-33 0 -3 -27 -51 -60 -107 -33 -55 -60 -105 -60 -110 0 -5 -4 -9 -9 -9 -5 0
-14 -12 -20 -27 -24 -61 -85 -141 -109 -144 -4 0 -14 -2 -22 -4 -8 -2 -30 -6
-49 -10 -19 -3 -37 -7 -40 -9 -3 -2 -28 -7 -55 -10 -27 -4 -52 -9 -55 -11 -3
-1 -22 -6 -41 -9 -53 -9 -88 -16 -165 -33 -38 -8 -82 -16 -97 -17 -16 0 -28
-3 -28 -6 0 -4 -10 -6 -22 -7 -13 -1 -34 -4 -48 -7 -14 -3 -57 -13 -97 -21
-78 -18 -95 -32 -112 -102 -6 -21 -14 -54 -20 -73 -5 -19 -24 -84 -41 -145
-17 -60 -38 -132 -46 -160 -8 -27 -17 -57 -19 -65 -2 -8 -13 -46 -25 -85 -12
-38 -21 -77 -22 -85 0 -8 -4 -19 -7 -25 -4 -5 -6 -16 -5 -22 1 -7 2 -25 3 -39
1 -20 28 -53 103 -127 406 -395 498 -489 499 -510 1 -12 3 -134 4 -271 1 -188
-1 -256 -11 -274 -13 -26 -33 -45 -114 -111 -25 -20 -52 -43 -60 -52 -8 -9
-44 -40 -80 -70 -36 -30 -77 -65 -92 -79 -15 -14 -42 -37 -60 -52 -104 -87
-127 -107 -166 -145 -46 -45 -47 -52 -27 -133 3 -14 8 -32 10 -40 2 -8 4 -15
5 -15 1 0 3 -9 5 -20 6 -30 26 -108 33 -125 3 -8 7 -19 8 -25 1 -5 3 -13 4
-17 4 -13 7 -23 65 -244 24 -89 48 -171 54 -182 10 -19 71 -69 71 -58 0 2 16
0 36 -6 58 -16 78 -20 97 -21 9 -1 17 -5 17 -10 0 -5 7 -7 15 -4 8 4 17 2 21
-4 3 -6 12 -8 19 -5 7 2 16 2 19 -2 4 -3 12 -7 19 -8 22 -4 131 -32 207 -53
41 -12 104 -28 140 -37 134 -31 187 -53 218 -88 12 -15 22 -28 22 -30 0 -3 23
-42 52 -88 28 -46 65 -108 81 -138 17 -30 33 -57 36 -60 4 -3 12 -16 19 -30 7
-14 20 -38 30 -55 19 -36 21 -98 2 -140 -7 -16 -15 -36 -17 -42 -1 -7 -5 -19
-6 -25 -2 -7 -9 -26 -16 -42 -6 -16 -13 -36 -15 -45 -2 -9 -6 -23 -9 -31 -4
-8 -14 -37 -22 -65 -9 -27 -19 -57 -22 -65 -4 -8 -7 -18 -7 -22 -1 -3 -4 -10
-8 -14 -5 -4 -8 -17 -8 -29 0 -12 -3 -25 -7 -29 -5 -4 -8 -11 -9 -14 0 -4 -3
-14 -7 -22 -19 -48 -70 -207 -72 -227 -3 -33 25 -68 172 -208 72 -70 191 -184
263 -255 72 -71 140 -132 150 -135 15 -5 75 8 280 60 30 8 217 57 290 76 41
11 82 20 90 21 8 0 21 5 28 11 6 5 12 7 12 4 0 -3 21 0 47 8 25 8 50 12 55 9
4 -3 8 -1 8 4 0 15 46 6 96 -18 42 -21 199 -108 234 -130 8 -5 31 -17 50 -27
108 -53 184 -113 166 -130 -3 -3 -2 -11 3 -17 5 -6 11 -29 14 -51 3 -22 10
-52 15 -65 5 -14 10 -28 10 -33 0 -8 12 -83 17 -107 2 -8 12 -53 23 -100 11
-47 22 -98 25 -115 3 -16 12 -60 21 -96 8 -37 17 -78 20 -92 9 -53 62 -114
105 -123 14 -3 35 -9 46 -12 11 -3 25 -7 30 -8 6 -1 37 -9 70 -18 33 -9 71
-19 85 -22 14 -2 36 -9 50 -13 23 -9 292 -81 315 -85 6 -1 20 -6 32 -10 35
-12 93 -15 99 -5 3 5 10 7 15 4 5 -4 9 -1 9 4 0 6 3 10 8 9 7 -3 70 56 307
288 68 67 126 119 129 116 3 -3 6 -1 6 5 0 10 72 83 135 137 17 14 41 26 55
26 29 1 460 1 507 0 24 0 41 -10 70 -41 21 -23 58 -63 83 -89 53 -55 207 -223
233 -254 52 -60 155 -173 176 -193 33 -32 104 -41 140 -19 5 3 26 8 47 12 20
3 48 10 62 15 13 5 28 7 33 3 5 -3 9 0 9 7 0 7 3 10 6 6 3 -3 17 -2 30 3 14 6
35 12 47 14 49 11 69 15 87 21 10 3 29 8 42 10 13 3 68 16 122 31 55 14 109
28 120 31 12 2 28 6 36 8 8 2 18 4 23 4 4 1 21 14 38 30 26 26 35 46 52 116 1
6 6 16 10 22 5 7 6 13 3 13 -3 0 2 23 10 52 9 28 17 59 19 67 2 9 15 55 29
103 14 48 30 105 35 125 10 38 28 105 36 133 2 8 11 42 20 75 31 116 39 127
170 195 55 29 141 77 192 106 51 30 97 54 102 54 6 0 11 4 11 9 0 11 77 31 85
22 4 -3 10 -6 13 -7 18 -1 80 -18 102 -27 14 -5 30 -11 36 -12 6 -2 87 -28
180 -58 443 -146 447 -147 513 -88 18 16 47 40 64 53 52 39 457 445 458 459 1
8 3 25 4 39 1 13 -2 38 -7 55 -5 16 -12 37 -15 45 -2 8 -4 16 -4 17 0 2 -5 17
-10 35 -11 35 -38 132 -44 158 -2 8 -18 62 -35 120 -17 58 -34 116 -37 130 -7
34 -9 43 -15 60 -28 77 -48 179 -37 186 5 3 9 11 9 19 0 8 25 54 55 104 30 50
55 95 55 100 0 5 4 11 8 13 8 3 27 34 95 153 43 76 70 104 99 106 10 1 21 2
26 3 17 4 89 18 110 22 78 13 140 25 162 30 53 12 116 25 140 29 14 2 36 7 50
10 50 12 76 17 105 20 17 2 30 4 30 5 0 1 7 3 15 5 142 28 164 41 181 112 5
21 12 47 15 58 3 11 7 27 9 35 2 8 4 15 5 15 1 0 3 8 5 17 5 27 56 208 72 258
8 25 17 56 19 70 3 14 11 43 19 65 7 22 15 51 16 65 2 14 8 28 13 31 13 10 15
91 3 114 -5 10 -33 41 -61 68 -28 27 -163 159 -301 292 l-250 243 1 272 1 272
46 44 c26 24 49 44 51 44 2 0 19 14 37 32 19 17 51 43 71 58 21 15 34 30 31
34 -3 3 -2 6 4 6 5 0 23 12 40 28 17 15 53 45 78 67 76 64 216 188 242 213 35
35 37 61 13 152 -5 19 -11 46 -14 60 -2 14 -5 27 -6 30 -1 3 -3 10 -4 15 -12
64 -30 135 -35 135 -3 0 -6 10 -7 23 -1 28 -11 74 -18 86 -3 5 -8 26 -12 47
-3 22 -10 47 -16 57 -5 10 -11 26 -13 35 -2 9 -13 47 -25 84 -17 53 -28 71
-58 91 -33 23 -150 61 -227 74 -16 3 -36 10 -43 16 -7 5 -15 7 -19 4 -3 -3
-18 0 -34 9 -16 8 -29 12 -29 10 0 -3 -23 2 -52 10 -28 9 -59 17 -67 19 -9 2
-70 17 -136 35 -66 17 -136 35 -156 40 -54 15 -89 54 -165 185 -88 153 -81
142 -133 226 -24 40 -45 85 -47 100 -2 15 44 165 107 350 60 178 111 329 113
334 2 6 6 24 11 40 4 17 12 36 18 43 6 8 6 12 -2 12 -6 0 -16 11 -21 24 -8 22
-163 180 -423 430 -60 58 -121 109 -137 115 -27 9 -59 8 -105 -3 -119 -30
-223 -57 -235 -63 -8 -3 -19 -5 -23 -4 -5 1 -39 -8 -76 -19 -37 -11 -81 -21
-97 -23 -17 -2 -34 -6 -39 -9 -9 -5 -31 -11 -85 -23 -8 -2 -29 -8 -47 -14 -17
-5 -34 -6 -38 -3 -3 4 -10 1 -14 -6 -4 -7 -32 -14 -62 -16 -56 -4 -54 -5 -199
77 -19 11 -62 34 -95 52 -224 121 -249 140 -260 195 -3 14 -8 41 -12 60 -4 19
-8 40 -8 45 -1 6 -3 12 -4 15 -2 3 -4 14 -6 25 -2 11 -6 31 -10 45 -4 14 -8
36 -10 50 -2 14 -4 25 -5 25 -1 0 -3 9 -4 20 -2 11 -13 65 -24 120 -12 55 -24
111 -27 125 -2 14 -9 48 -15 75 -6 28 -13 63 -16 79 -8 46 -36 75 -89 92 -47
14 -308 84 -330 88 -5 1 -16 5 -22 9 -7 5 -13 6 -13 3 0 -2 -15 0 -32 5 -31 9
-49 14 -88 24 -8 2 -15 4 -15 5 0 1 -7 3 -15 5 -9 1 -51 12 -95 24 -44 12 -95
21 -115 20 -38 -3 -20 12 -341 -301 -208 -203 -271 -261 -299 -278 -37 -21
-532 -23 -574 -2 -34 16 -109 93 -316 324 -116 129 -248 258 -265 261 -11 1
-25 6 -31 9 -6 4 -15 3 -20 -2z m1102 -1815 c60 -3 127 -8 149 -11 22 -2 60
-7 85 -10 67 -8 95 -12 95 -14 0 -1 14 -4 30 -5 17 -2 41 -6 55 -9 31 -8 67
-15 100 -22 75 -15 350 -98 420 -127 14 -5 32 -11 40 -13 8 -2 23 -7 35 -13
11 -5 81 -38 155 -72 74 -35 137 -67 140 -70 3 -3 15 -9 27 -13 13 -4 29 -14
37 -21 8 -8 20 -16 27 -17 7 -2 18 -7 24 -11 5 -4 53 -35 105 -69 52 -33 97
-65 98 -69 2 -5 8 -9 13 -9 11 0 147 -105 165 -126 6 -8 14 -14 17 -14 17 0
272 -250 348 -340 30 -35 60 -71 67 -78 7 -8 38 -49 69 -91 31 -42 60 -77 65
-79 4 -2 8 -8 8 -12 0 -12 62 -104 72 -108 4 -2 8 -8 8 -13 0 -5 12 -28 27
-52 15 -23 38 -64 52 -92 13 -27 27 -52 30 -55 9 -6 117 -247 126 -280 4 -14
12 -30 17 -36 5 -7 10 -20 12 -30 2 -11 15 -53 29 -94 27 -80 47 -154 71 -260
15 -64 25 -117 51 -280 26 -159 25 -570 0 -750 -2 -14 -7 -45 -10 -70 -10 -65
-60 -296 -80 -360 -9 -30 -17 -60 -19 -67 -1 -7 -5 -16 -9 -19 -4 -4 -7 -15
-7 -24 0 -50 -185 -459 -252 -557 -16 -24 -26 -43 -23 -43 4 0 -6 -17 -22 -38
-15 -20 -32 -44 -38 -53 -137 -223 -447 -558 -683 -738 -26 -20 -48 -39 -50
-43 -2 -5 -10 -8 -17 -8 -7 0 -15 -4 -17 -8 -4 -12 -185 -132 -198 -132 -5 0
-10 -4 -10 -9 0 -5 -8 -11 -17 -14 -24 -8 -77 -40 -81 -50 -2 -4 -7 -5 -12 -2
-5 3 -14 -1 -22 -8 -7 -7 -47 -29 -88 -49 -82 -39 -172 -81 -180 -83 -3 -1
-18 -8 -35 -15 -16 -7 -37 -14 -45 -16 -8 -2 -23 -7 -35 -13 -21 -11 -160 -60
-185 -65 -42 -10 -107 -28 -120 -33 -8 -3 -19 -7 -25 -9 -24 -6 -72 -16 -90
-19 -11 -2 -20 -4 -20 -5 0 -2 -11 -4 -25 -5 -14 -1 -32 -5 -40 -8 -18 -6 -63
-14 -140 -23 -58 -7 -85 -11 -85 -14 0 -1 -20 -3 -45 -5 -25 -1 -92 -6 -150
-10 -203 -14 -387 -8 -615 21 -16 2 -39 5 -51 8 -12 2 -45 7 -75 11 -30 4 -57
9 -61 12 -9 4 -33 10 -87 19 -19 3 -45 10 -58 15 -13 5 -23 6 -23 3 0 -3 -6
-2 -12 3 -7 4 -21 9 -30 10 -9 1 -77 23 -150 48 -73 24 -140 47 -149 49 -8 2
-37 14 -65 26 -27 12 -65 29 -84 38 -145 63 -291 143 -423 230 -56 37 -106 69
-112 71 -5 2 -12 7 -15 10 -3 3 -23 19 -45 36 -22 16 -51 40 -65 52 -14 13
-28 23 -31 23 -27 0 -407 383 -471 473 -12 17 -31 41 -41 52 -28 30 -189 272
-226 340 -18 33 -37 64 -42 70 -5 5 -9 17 -9 26 0 10 -4 19 -8 21 -9 3 -111
221 -117 249 -2 8 -11 33 -20 55 -17 38 -44 122 -45 136 0 5 -6 25 -14 45 -13
35 -25 81 -25 93 0 3 -5 18 -11 34 -6 16 -13 45 -16 65 -3 20 -9 50 -14 66
-21 73 -46 261 -56 425 -10 158 -10 201 -1 207 4 3 3 10 -2 17 -6 7 -8 16 -4
19 3 4 7 44 9 89 1 46 3 83 4 83 1 0 3 18 5 40 2 22 6 54 8 70 3 17 8 53 12
80 4 28 11 70 17 95 5 25 12 56 14 70 3 14 10 43 16 65 5 22 11 47 13 55 2 8
8 27 14 43 6 15 8 27 5 27 -2 0 0 8 5 18 6 11 12 30 15 43 6 26 60 182 75 214
5 11 24 54 42 95 47 106 123 250 187 355 49 79 168 249 197 281 5 7 18 22 29
35 115 144 384 412 455 453 9 6 27 20 41 33 14 13 59 47 100 75 41 29 77 56
78 60 2 4 8 8 13 8 5 0 35 17 66 37 115 75 424 233 503 258 13 4 47 18 65 26
22 10 227 78 254 85 9 2 61 15 116 29 55 13 118 27 140 31 22 3 42 7 45 9 3 2
30 6 60 10 30 3 69 8 85 11 50 10 122 15 290 20 88 3 165 7 170 8 6 2 13 2 16
0 3 -2 55 -6 115 -9z"/>
</g>
</svg>
